<?xml version="1.0" encoding="UTF-8" standalone="no"?>
<svg
   id="Layer_1"
   data-name="Layer 1"
   viewBox="0 0 481 94"
   version="1.1"
   sodipodi:docname="cuny (2).svg"
   width="481"
   height="94"
   inkscape:version="1.4 (86a8ad7, 2024-10-11)"
   xmlns:inkscape="http://www.inkscape.org/namespaces/inkscape"
   xmlns:sodipodi="http://sodipodi.sourceforge.net/DTD/sodipodi-0.dtd"
   xmlns="http://www.w3.org/2000/svg"
   xmlns:svg="http://www.w3.org/2000/svg">
  <sodipodi:namedview
     id="namedview16"
     pagecolor="#ffffff"
     bordercolor="#000000"
     borderopacity="0.25"
     inkscape:showpageshadow="2"
     inkscape:pageopacity="0.0"
     inkscape:pagecheckerboard="0"
     inkscape:deskcolor="#d1d1d1"
     inkscape:zoom="3.6632017"
     inkscape:cx="212.38252"
     inkscape:cy="60.466232"
     inkscape:window-width="1920"
     inkscape:window-height="974"
     inkscape:window-x="-11"
     inkscape:window-y="-11"
     inkscape:window-maximized="1"
     inkscape:current-layer="Layer_1" />
  <defs
     id="defs1">
    <style
       id="style1">.cls-1,.cls-2{fill:none;}.cls-2{stroke:#055eaa;stroke-miterlimit:10;stroke-width:2.25px;}.cls-3{fill:#055eaa;}</style>
  </defs>
  <rect
     class="cls-1"
     width="481"
     height="121"
     id="rect1"
     x="0"
     y="0" />
  <polyline
     class="cls-2"
     points="115.43 106.5 129.95 106.5 129.95 74.2 144.65 74.2 144.65 106.5 154.59 106.5 154.59 15.69 169.11 15.69 169.11 106.5 178.87 106.5 178.87 41.12 193.57 41.12 193.57 106.5 208 106.5"
     id="polyline1"
     transform="translate(0,-14)" />
  <path
     class="cls-3"
     d="m 242.05,42.12 h -5.66 c -0.17,-1.26 -0.29,-2.19 -0.35,-3.52 -1.85,3.28 -4.73,4.24 -8.23,4.24 -8.65,0 -11.79,-7.71 -11.79,-21.18 C 216,6.53 221.13,0 230,0 c 11.23,0 11.85,9.63 12,12.09 h -7.33 c -0.12,-1.67 -0.48,-5.81 -4.86,-5.81 -4.78,0 -6.12,6.38 -6.12,15.35 0,9.66 1.14,15 5.87,15 3.93,0 5.12,-3 5.12,-9.12 v -2.34 h -5.58 v -6.33 h 13 z"
     id="path1" />
  <path
     class="cls-3"
     d="m 258.91,24.45 v 17.67 h -7.38 V 0.68 h 12.69 c 7.53,0 11.8,3.93 11.8,11.33 0,6 -3.21,8.57 -5.37,9.43 3.21,1.5 4.73,4.23 4.73,10.35 v 1.66 a 48.17,48.17 0 0 0 0.56,8.67 h -7.18 c -0.61,-1.89 -0.71,-5.17 -0.71,-8.74 v -1.51 c 0,-5.54 -1.28,-7.42 -6,-7.42 z m 0,-6 h 3.48 c 4.48,0 6.23,-1.93 6.23,-6.12 0,-3.57 -1.7,-5.64 -5.5,-5.64 h -4.21 z"
     id="path2" />
  <path
     class="cls-3"
     d="m 291.53,31.7 -2.06,10.42 H 282 l 9.6,-41.44 h 9.63 L 311,42.12 h -7.79 L 301.12,31.7 Z m 8.27,-6.45 c -1.55,-7.93 -2.79,-13.72 -3.44,-17.68 h -0.17 c -0.51,3.81 -1.82,10 -3.35,17.68 z"
     id="path3" />
  <path
     class="cls-3"
     d="m 317.55,0.68 h 10.8 c 10.66,0 14.8,6.83 14.8,19.87 0,14 -4,21.57 -15.38,21.57 H 317.55 Z M 325,36.06 h 2.65 c 5.8,0 7.8,-4.36 7.8,-15.48 0,-9.53 -1.78,-13.73 -7.74,-13.73 H 325 Z"
     id="path4" />
  <path
     class="cls-3"
     d="M 359.11,0.68 V 29.2 c 0,3.39 0.84,7.42 5.4,7.42 4.56,0 5.36,-3.39 5.36,-7.38 V 0.68 h 7.43 v 28.68 c 0,7.44 -2.9,13.49 -12.91,13.49 -9.85,0 -12.72,-5.69 -12.72,-13.49 V 0.68 Z"
     id="path5" />
  <path
     class="cls-3"
     d="m 392.77,31.7 -2.06,10.42 h -7.43 l 9.6,-41.44 h 9.63 l 9.7,41.44 h -7.79 L 402.36,31.7 Z M 401,25.25 c -1.55,-7.93 -2.79,-13.72 -3.44,-17.68 h -0.17 c -0.51,3.81 -1.82,10 -3.35,17.68 z"
     id="path6" />
  <path
     class="cls-3"
     d="m 421.43,7.18 h -8.85 v -6.5 h 25.14 v 6.5 h -8.86 v 34.94 h -7.43 z"
     id="path7" />
  <path
     class="cls-3"
     d="m 465.45,23.71 h -13.3 v 12 h 14.93 l -0.92,6.38 H 444.82 V 0.68 h 21.25 v 6.5 h -13.92 v 10.08 h 13.3 z"
     id="path8" />
  <path
     class="cls-3"
     d="m 241.64,81.89 c -0.19,2.09 -1,12.77 -12.48,12.77 -11.78,0 -13.14,-10.35 -13.14,-21.49 0,-13.42 3.94,-21.32 13.58,-21.32 11,0 11.84,9.42 12,12.74 h -7.34 c -0.11,-1.41 -0.21,-6.45 -4.78,-6.45 -4.57,0 -5.8,5.7 -5.8,15.19 0,7.81 0.78,15.15 5.59,15.15 4.42,0 4.78,-5 5,-6.59 z"
     id="path9" />
  <path
     class="cls-3"
     d="m 270,75.53 h -13.3 v 12 h 14.93 l -0.91,6.39 H 249.33 V 52.51 h 21.25 V 59 H 256.65 V 69.09 H 270 Z"
     id="path10" />
  <path
     class="cls-3"
     d="M 279.15,94 V 52.51 h 8.43 c 8.57,22.9 10.21,27.27 10.71,29.3 h 0.06 c -0.35,-5 -0.36,-11.08 -0.36,-17.87 V 52.51 h 6.63 V 94 h -8.08 c -8.85,-24.42 -10.43,-28.82 -11,-30.72 h -0.06 c 0.3,5.1 0.31,11.21 0.31,18.63 V 94 Z"
     id="path11" />
  <path
     class="cls-3"
     d="m 320.5,59 h -8.85 v -6.49 h 25.14 V 59 h -8.86 v 35 h -7.43 z"
     id="path12" />
  <path
     class="cls-3"
     d="m 364.51,75.53 h -13.3 v 12 h 14.94 l -0.92,6.39 H 343.89 V 52.51 h 21.25 V 59 h -13.93 v 10.09 h 13.3 z"
     id="path13" />
  <path
     class="cls-3"
     d="M 381.09,76.28 V 94 h -7.38 V 52.51 h 12.7 c 7.53,0 11.8,3.93 11.8,11.32 0,6 -3.21,8.58 -5.38,9.44 3.21,1.5 4.73,4.23 4.73,10.35 v 1.65 a 49.2,49.2 0 0 0 0.56,8.68 h -7.18 c -0.6,-1.9 -0.71,-5.18 -0.71,-8.75 v -1.51 c 0,-5.54 -1.27,-7.41 -6,-7.41 z m 0,-6 h 3.48 c 4.48,0 6.24,-1.93 6.24,-6.12 0,-3.57 -1.71,-5.63 -5.51,-5.63 h -4.21 z"
     id="path14" />
  <polygon
     class="cls-3"
     points="39.14,107.9 47.81,107.9 47.81,73.71 38.41,73.71 38.41,92.03 22.07,73.71 13.62,73.71 13.62,107.9 23.02,107.9 23.02,89.57 "
     id="polygon14"
     transform="translate(0,-14)" />
  <path
     class="cls-3"
     d="m 82,45.35 v -7.09 0 -12 h -9.4 v 19.09 a 6.44,6.44 0 0 1 -0.39,2.29 5.7,5.7 0 0 1 -1.66,2.3 8.87,8.87 0 0 1 -5.63,2 v 0 a 8.87,8.87 0 0 1 -5.63,-2 5.7,5.7 0 0 1 -1.66,-2.3 6.44,6.44 0 0 1 -0.39,-2.29 V 26.29 h -9.4 v 12 0 9.38 0 c 0,7.56 8.16,13.56 16.65,13.68 h 0.87 C 73.83,61.2 82,55.37 82,47.64 v 0 z"
     id="path15" />
  <path
     class="cls-3"
     d="m 37.57,47.64 a 8.68,8.68 0 0 1 -7.32,4.27 h -0.12 a 9,9 0 0 1 0,-17.93 h 0.12 a 8.68,8.68 0 0 1 7.32,4.27 h 10.25 c 0,-7.71 -8.13,-13.54 -16.6,-13.69 H 29.6 A 18.36,18.36 0 0 0 11.23,43 v 0 A 18.36,18.36 0 0 0 29.6,61.32 h 1.62 c 8.47,-0.15 16.6,-6 16.6,-13.68 z"
     id="path16" />
  <polygon
     class="cls-3"
     points="60.2,98.98 60.2,107.9 69.61,107.9 69.61,98.98 82,73.71 72.6,73.71 64.91,89.39 57.21,73.71 47.81,73.71 "
     id="polygon16"
     transform="translate(0,-14)" />
</svg>
