<?xml version="1.0" encoding="UTF-8" standalone="no"?>
<!-- Generator: Adobe Illustrator 27.3.1, SVG Export Plug-In . SVG Version: 6.00 Build 0)  -->

<svg
   version="1.1"
   id="Layer_1"
   x="0px"
   y="0px"
   viewBox="0 0 193.59 20.16"
   enable-background="new 0 0 200 100"
   xml:space="preserve"
   sodipodi:docname="ncar.svg"
   width="193.59"
   height="20.16"
   inkscape:version="1.4 (86a8ad7, 2024-10-11)"
   xmlns:inkscape="http://www.inkscape.org/namespaces/inkscape"
   xmlns:sodipodi="http://sodipodi.sourceforge.net/DTD/sodipodi-0.dtd"
   xmlns="http://www.w3.org/2000/svg"
   xmlns:svg="http://www.w3.org/2000/svg"><defs
   id="defs40" /><sodipodi:namedview
   id="namedview40"
   pagecolor="#ffffff"
   bordercolor="#000000"
   borderopacity="0.25"
   inkscape:showpageshadow="2"
   inkscape:pageopacity="0.0"
   inkscape:pagecheckerboard="0"
   inkscape:deskcolor="#d1d1d1"
   showgrid="false"
   inkscape:zoom="7.35"
   inkscape:cx="96.734694"
   inkscape:cy="10.136054"
   inkscape:window-width="1920"
   inkscape:window-height="974"
   inkscape:window-x="-11"
   inkscape:window-y="-11"
   inkscape:window-maximized="1"
   inkscape:current-layer="Layer_1" />
<g
   id="Isolation_Mode"
   transform="translate(-3.2,-39.919998)">
	<rect
   x="77.849998"
   y="39.919998"
   fill="#1a3b68"
   width="0.75"
   height="20.16"
   id="rect1" />
	<path
   fill="#1a3b68"
   d="m 90.32,42.12 v 6.31 H 89.06 L 86.2,44.1 v 4.33 h -1.26 v -6.31 h 1.26 l 2.86,4.33 v -4.33 z"
   id="path1" />
	<path
   fill="#1a3b68"
   d="m 95.43,47.23 h -2.51 l -0.42,1.2 h -1.33 l 2.27,-6.31 h 1.47 l 2.27,6.31 h -1.34 z m -1.25,-3.65 -0.91,2.64 h 1.82 z"
   id="path2" />
	<path
   fill="#1a3b68"
   d="m 97.7,42.13 h 4.62 v 1.02 h -1.68 v 5.28 H 99.38 V 43.15 H 97.7 Z"
   id="path3" />
	<path
   fill="#1a3b68"
   d="m 103.24,42.13 h 1.26 v 6.3 h -1.26 z"
   id="path4" />
	<path
   fill="#1a3b68"
   d="m 108.68,48.5 c -1.78,0 -3.23,-1.44 -3.23,-3.22 0,-1.78 1.44,-3.23 3.22,-3.23 1.78,0 3.23,1.44 3.23,3.22 0,0 0,0 0,0 0.04,1.75 -1.35,3.2 -3.1,3.23 -0.04,0 -0.08,0 -0.12,0 z m 0,-1.13 c 1.14,0 1.92,-0.82 1.92,-2.1 0,-1.28 -0.79,-2.09 -1.92,-2.09 -1.15,0 -1.93,0.8 -1.93,2.09 0,1.28 0.78,2.1 1.93,2.1 z"
   id="path5" />
	<path
   fill="#1a3b68"
   d="m 118.24,42.12 v 6.31 h -1.26 l -2.86,-4.33 v 4.33 h -1.26 v -6.31 h 1.26 l 2.86,4.33 v -4.33 z"
   id="path6" />
	<path
   fill="#1a3b68"
   d="m 123.35,47.23 h -2.51 l -0.42,1.2 h -1.33 l 2.27,-6.31 h 1.47 l 2.27,6.31 h -1.34 z m -1.26,-3.65 -0.91,2.64 H 123 Z"
   id="path7" />
	<path
   fill="#1a3b68"
   d="m 127.22,42.13 v 5.3 h 2.08 v 1 h -3.34 v -6.3 z"
   id="path8" />
	<path
   fill="#1a3b68"
   d="m 135.14,42.05 c 1.33,-0.06 2.55,0.77 2.96,2.04 h -1.45 c -0.28,-0.58 -0.87,-0.94 -1.52,-0.9 -1.1,0 -1.89,0.8 -1.89,2.09 0,1.27 0.79,2.09 1.89,2.09 0.64,0.03 1.24,-0.33 1.52,-0.91 h 1.45 c -0.42,1.3 -1.56,2.04 -2.96,2.04 -1.72,0.05 -3.15,-1.3 -3.2,-3.01 0,-0.07 0,-0.13 0,-0.2 -0.06,-1.72 1.28,-3.16 3,-3.22 0.07,-0.02 0.13,-0.02 0.2,-0.02 z"
   id="path9" />
	<path
   fill="#1a3b68"
   d="m 142.84,43.15 h -2.39 v 1.58 h 2.12 v 1 h -2.12 v 1.67 h 2.39 v 1.03 h -3.66 v -6.31 h 3.66 z"
   id="path10" />
	<path
   fill="#1a3b68"
   d="m 149.38,42.12 v 6.31 h -1.26 l -2.86,-4.33 v 4.33 H 144 v -6.31 h 1.26 l 2.86,4.33 v -4.33 z"
   id="path11" />
	<path
   fill="#1a3b68"
   d="m 150.29,42.13 h 4.62 v 1.02 h -1.68 v 5.28 h -1.26 v -5.28 h -1.68 z"
   id="path12" />
	<path
   fill="#1a3b68"
   d="m 159.49,43.15 h -2.39 v 1.58 h 2.12 v 1 h -2.12 v 1.67 h 2.39 v 1.03 h -3.66 v -6.31 h 3.66 z"
   id="path13" />
	<path
   fill="#1a3b68"
   d="m 163.01,42.13 c 1.52,0 2.28,0.88 2.28,1.93 0.02,0.87 -0.58,1.63 -1.44,1.81 l 1.51,2.56 h -1.46 l -1.39,-2.46 h -0.6 v 2.46 h -1.26 v -6.3 z m -0.05,1.05 h -1.06 v 1.85 h 1.06 c 0.7,0 1.02,-0.37 1.02,-0.94 0,-0.56 -0.31,-0.91 -1.02,-0.91 z"
   id="path14" />
	<path
   fill="#1a3b68"
   d="m 168.58,42.13 h 3.89 v 1.02 h -2.63 v 1.62 h 2.01 v 1 h -2.01 v 2.66 h -1.26 z"
   id="path15" />
	<path
   fill="#1a3b68"
   d="m 176.29,48.5 c -1.78,0 -3.23,-1.44 -3.23,-3.22 0,-1.78 1.44,-3.23 3.22,-3.23 1.78,0 3.23,1.44 3.23,3.22 0.04,1.75 -1.35,3.2 -3.1,3.23 -0.04,0 -0.08,0 -0.12,0 z m 0,-1.13 c 1.14,0 1.92,-0.82 1.92,-2.1 0,-1.28 -0.79,-2.09 -1.92,-2.09 -1.15,0 -1.93,0.8 -1.93,2.09 0,1.28 0.79,2.1 1.93,2.1 z"
   id="path16" />
	<path
   fill="#1a3b68"
   d="m 182.82,42.13 c 1.52,0 2.28,0.88 2.28,1.93 0.02,0.87 -0.58,1.63 -1.44,1.81 l 1.51,2.56 h -1.46 l -1.39,-2.46 h -0.6 v 2.46 h -1.27 v -6.3 z m -0.04,1.05 h -1.06 v 1.85 h 1.06 c 0.7,0 1.02,-0.37 1.02,-0.94 0,-0.56 -0.32,-0.91 -1.02,-0.91 z"
   id="path17" />
	<path
   fill="#1a3b68"
   d="m 88.79,57.72 h -2.51 l -0.42,1.2 h -1.33 l 2.27,-6.31 h 1.47 l 2.27,6.31 h -1.33 z m -1.25,-3.65 -0.91,2.64 h 1.82 z"
   id="path18" />
	<path
   fill="#1a3b68"
   d="m 91.06,52.62 h 4.62 v 1.02 H 94 v 5.28 h -1.26 v -5.28 h -1.68 z"
   id="path19" />
	<path
   fill="#1a3b68"
   d="m 96.61,52.62 h 1.44 l 2,4.69 2,-4.69 h 1.43 v 6.3 h -1.26 v -4.1 l -1.69,4.1 h -0.96 l -1.7,-4.1 v 4.1 h -1.26 z"
   id="path20" />
	<path
   fill="#1a3b68"
   d="m 107.65,58.98 c -1.78,0 -3.23,-1.44 -3.23,-3.22 0,-1.78 1.44,-3.23 3.22,-3.23 1.78,0 3.23,1.44 3.23,3.22 0,0 0,0 0,0 0.04,1.75 -1.35,3.2 -3.1,3.23 -0.04,0 -0.08,0 -0.12,0 z m 0,-1.13 c 1.14,0 1.92,-0.82 1.92,-2.1 0,-1.28 -0.79,-2.09 -1.92,-2.09 -1.15,0 -1.93,0.8 -1.93,2.09 0,1.29 0.78,2.1 1.93,2.1 z"
   id="path21" />
	<path
   fill="#1a3b68"
   d="m 113.99,58.98 c -1.31,0 -2.32,-0.69 -2.34,-1.88 H 113 c 0.01,0.48 0.41,0.86 0.89,0.84 0.02,0 0.05,0 0.07,0 0.6,0 0.95,-0.32 0.95,-0.77 0,-1.36 -3.25,-0.54 -3.24,-2.83 0,-1.14 0.92,-1.82 2.22,-1.82 1.29,0 2.18,0.66 2.26,1.8 h -1.39 c -0.04,-0.46 -0.45,-0.79 -0.9,-0.75 -0.5,-0.02 -0.87,0.23 -0.87,0.74 0,1.26 3.23,0.56 3.23,2.78 0,1 -0.79,1.89 -2.23,1.89 z"
   id="path22" />
	<path
   fill="#1a3b68"
   d="m 119.64,56.5 h -1.06 v 2.42 h -1.26 v -6.3 h 2.32 c 1.52,0 2.28,0.86 2.28,1.95 -0.01,0.95 -0.66,1.93 -2.28,1.93 z m -0.06,-1.02 c 0.71,0 1.03,-0.35 1.03,-0.91 0,-0.58 -0.32,-0.92 -1.03,-0.92 h -1 v 1.83 z"
   id="path23" />
	<path
   fill="#1a3b68"
   d="m 126.77,56.24 h -2.7 v 2.68 h -1.26 v -6.3 h 1.26 v 2.59 h 2.7 v -2.59 h 1.26 v 6.3 h -1.26 z"
   id="path24" />
	<path
   fill="#1a3b68"
   d="m 132.94,53.64 h -2.39 v 1.58 h 2.12 v 1 h -2.12 v 1.67 h 2.39 v 1.03 h -3.66 v -6.31 h 3.66 z"
   id="path25" />
	<path
   fill="#1a3b68"
   d="m 136.45,52.62 c 1.52,0 2.28,0.88 2.28,1.93 0.02,0.87 -0.59,1.63 -1.44,1.82 l 1.51,2.56 h -1.46 l -1.39,-2.46 h -0.6 v 2.46 h -1.26 v -6.3 h 2.36 z m -0.04,1.04 h -1.06 v 1.85 h 1.06 c 0.7,0 1.02,-0.37 1.02,-0.94 0,-0.55 -0.32,-0.91 -1.02,-0.91 z"
   id="path26" />
	<path
   fill="#1a3b68"
   d="m 139.88,52.62 h 1.26 v 6.3 h -1.26 z"
   id="path27" />
	<path
   fill="#1a3b68"
   d="m 145.28,52.53 c 1.33,-0.06 2.55,0.77 2.96,2.04 h -1.45 c -0.28,-0.58 -0.88,-0.94 -1.52,-0.9 -1.1,0 -1.89,0.8 -1.89,2.09 0,1.27 0.79,2.09 1.89,2.09 0.64,0.03 1.24,-0.33 1.52,-0.91 h 1.45 c -0.42,1.3 -1.56,2.04 -2.96,2.04 -1.78,0 -3.22,-1.44 -3.22,-3.22 0,-1.78 1.44,-3.22 3.22,-3.23 z"
   id="path28" />
	<path
   fill="#1a3b68"
   d="m 153.84,52.62 c 1.52,0 2.27,0.88 2.27,1.93 0.02,0.87 -0.58,1.63 -1.44,1.82 l 1.51,2.56 h -1.46 l -1.39,-2.46 h -0.6 v 2.46 h -1.26 v -6.3 h 2.37 z m -0.04,1.04 h -1.06 v 1.85 h 1.06 c 0.7,0 1.02,-0.37 1.02,-0.94 0,-0.55 -0.32,-0.91 -1.02,-0.91 z"
   id="path29" />
	<path
   fill="#1a3b68"
   d="m 160.92,53.64 h -2.39 v 1.58 h 2.12 v 1 h -2.12 v 1.67 h 2.39 v 1.03 h -3.66 v -6.31 h 3.66 z"
   id="path30" />
	<path
   fill="#1a3b68"
   d="m 164.25,58.98 c -1.31,0 -2.32,-0.69 -2.34,-1.88 h 1.35 c 0.01,0.48 0.41,0.86 0.89,0.84 0.02,0 0.05,0 0.07,0 0.6,0 0.95,-0.32 0.95,-0.77 0,-1.36 -3.25,-0.54 -3.24,-2.83 0,-1.14 0.92,-1.82 2.22,-1.82 1.29,0 2.18,0.66 2.26,1.8 h -1.39 c -0.04,-0.46 -0.45,-0.79 -0.9,-0.75 -0.5,-0.02 -0.87,0.23 -0.87,0.74 0,1.26 3.23,0.56 3.23,2.78 0,1 -0.8,1.89 -2.23,1.89 z"
   id="path31" />
	<path
   fill="#1a3b68"
   d="m 171.23,53.64 h -2.39 v 1.58 h 2.12 v 1 h -2.12 v 1.67 h 2.39 v 1.03 h -3.66 v -6.31 h 3.66 z"
   id="path32" />
	<path
   fill="#1a3b68"
   d="m 176.24,57.72 h -2.51 l -0.42,1.2 h -1.33 l 2.27,-6.31 h 1.47 l 2.27,6.31 h -1.34 z m -1.26,-3.65 -0.91,2.64 h 1.82 z"
   id="path33" />
	<path
   fill="#1a3b68"
   d="m 181.21,52.62 c 1.52,0 2.28,0.88 2.28,1.93 0.02,0.87 -0.58,1.63 -1.44,1.82 l 1.51,2.56 h -1.46 l -1.39,-2.46 h -0.6 v 2.46 h -1.26 v -6.3 h 2.36 z m -0.05,1.04 h -1.06 v 1.85 h 1.06 c 0.7,0 1.02,-0.37 1.02,-0.94 0,-0.55 -0.31,-0.91 -1.02,-0.91 z"
   id="path34" />
	<path
   fill="#1a3b68"
   d="m 187.52,52.53 c 1.33,-0.06 2.55,0.77 2.96,2.04 h -1.45 c -0.28,-0.58 -0.87,-0.94 -1.52,-0.9 -1.1,0 -1.89,0.8 -1.89,2.09 0,1.27 0.79,2.09 1.89,2.09 0.64,0.03 1.24,-0.33 1.52,-0.91 h 1.45 c -0.42,1.3 -1.56,2.04 -2.96,2.04 -1.78,0 -3.22,-1.44 -3.22,-3.22 0,-1.78 1.44,-3.22 3.22,-3.23 z"
   id="path35" />
	<path
   fill="#1a3b68"
   d="m 195.53,56.24 h -2.7 v 2.68 h -1.26 v -6.3 h 1.26 v 2.59 h 2.7 v -2.59 h 1.26 v 6.3 h -1.26 z"
   id="path36" />
	<path
   fill="#1a3b68"
   d="m 30.8,43.51 c -3.95,0.01 -6.38,1.81 -6.37,6.39 0.02,4.76 3,7.69 7.75,7.67 1.86,-0.01 3.67,-0.55 5.23,-1.55 l 0.01,2.52 c -1.61,0.91 -3.77,1.25 -5.51,1.25 -5.56,0.02 -10.13,-3.18 -10.15,-9.88 -0.02,-6.04 3.87,-8.62 8.65,-8.64 2.42,-0.01 4.78,0.49 6.97,1.06 l 0.01,2.69 c -1.3,-0.92 -4.4,-1.51 -6.59,-1.51"
   id="path37" />
	<path
   fill="#1a3b68"
   d="m 53.91,59.13 c -0.06,-0.3 -0.03,-0.6 -0.79,-2.24 -0.55,-1.23 -1.13,-2.33 -1.67,-3.56 l -7.73,0.03 c -0.54,1.26 -1.08,2.36 -1.65,3.6 -0.31,0.71 -0.55,1.46 -0.72,2.22 l -3.31,0.01 c 0,0 0.39,-0.35 1.26,-2.37 0.66,-1.54 5.06,-11.42 5.72,-12.95 0.75,-1.69 0.78,-2.07 0.78,-2.07 l 3.6,-0.01 c 0,0 0.03,0.45 0.73,2.04 0.67,1.53 5.02,11.3 5.72,12.86 1,2.18 1.41,2.44 1.41,2.44 z M 47.49,44.38 c -0.99,2.29 -1.94,4.52 -2.96,6.81 l 6.19,-0.02 c -1.06,-2.28 -2.17,-4.5 -3.23,-6.79"
   id="path38" />
	<path
   fill="#1a3b68"
   d="M 69.52,59.08 C 69.1,58.65 68.64,58.23 68.19,57.8 l -7.27,-6.39 0.02,5.61 c 0,0.8 0.07,1.79 0.22,2.09 l -2.96,0.01 c 0.18,-0.43 0.18,-1.13 0.17,-2.09 L 58.32,43.82 c 0,-0.69 -0.06,-1.38 -0.16,-2.06 2.26,-0.01 4.23,-0.32 6.43,-0.33 3.38,-0.01 5.92,1.19 5.93,4.26 0.01,3.12 -2.34,4.99 -6.32,5.48 2.27,1.93 4.54,3.91 6.81,5.86 0.8,0.74 1.66,1.42 2.57,2.03 z m -5.7,-15.79 c -0.97,0 -1.9,0.13 -2.93,0.24 l 0.02,5.59 c 0.64,0.05 1.21,0.1 1.84,0.1 2.66,-0.01 4.92,-0.53 4.91,-3.12 0,-2.14 -1.49,-2.81 -3.84,-2.81"
   id="path39" />
	<path
   fill="#1a3b68"
   d="m 16.12,59.19 c 0,0 -0.43,-0.73 -1.41,-2.11 C 11.77,53.06 8.85,48.99 5.94,44.94 v 12.09 c 0,1.81 0.12,2.16 0.12,2.16 H 3.2 C 3.33,58.47 3.38,57.74 3.35,57 V 44.36 C 3.37,43.52 3.33,42.68 3.23,41.85 h 3.72 c 0,0 0.15,0.43 1.43,2.21 1.05,1.46 7.67,10.63 8.72,12.09 V 44.26 c 0.03,-0.81 -0.01,-1.61 -0.12,-2.41 h 2.86 c -0.13,0.8 -0.18,1.61 -0.15,2.41 v 12.39 c 0,2.29 0.1,2.29 0.15,2.54 z"
   id="path40" />
</g>
</svg>
