<svg xmlns="http://www.w3.org/2000/svg" viewBox="0 0 256 144" width="256" height="144">
  <rect width="256" height="144" fill="#0f1c28"/>
  <!-- Frame -->
  <rect x="14" y="16" width="228" height="112" fill="#0f2133" stroke="#2a4d6f"/>
  <!-- Axes -->
  <rect x="28" y="32" width="2" height="84" fill="#b4d7ff"/>
  <rect x="28" y="116" width="200" height="2" fill="#b4d7ff"/>
  <!-- Uncertainty band -->
  <rect x="30" y="62" width="196" height="22" fill="#173a5a"/>
  <rect x="30" y="60" width="196" height="2" fill="#6bb3d6"/>
  <rect x="30" y="84" width="196" height="2" fill="#6bb3d6"/>
  <!-- Multi-model lines -->
  <rect x="30" y="92" width="28" height="2" fill="#4de0ff"/>
  <rect x="58" y="86" width="28" height="2" fill="#4de0ff"/>
  <rect x="86" y="80" width="28" height="2" fill="#4de0ff"/>
  <rect x="114" y="74" width="28" height="2" fill="#4de0ff"/>
  <rect x="142" y="70" width="28" height="2" fill="#4de0ff"/>
  <rect x="170" y="66" width="28" height="2" fill="#4de0ff"/>

  <rect x="30" y="88" width="28" height="2" fill="#7fe2a6"/>
  <rect x="58" y="82" width="28" height="2" fill="#7fe2a6"/>
  <rect x="86" y="78" width="28" height="2" fill="#7fe2a6"/>
  <rect x="114" y="76" width="28" height="2" fill="#7fe2a6"/>
  <rect x="142" y="72" width="28" height="2" fill="#7fe2a6"/>
  <rect x="170" y="68" width="28" height="2" fill="#7fe2a6"/>

  <rect x="30" y="94" width="28" height="2" fill="#ff5cab"/>
  <rect x="58" y="88" width="28" height="2" fill="#ff5cab"/>
  <rect x="86" y="84" width="28" height="2" fill="#ff5cab"/>
  <rect x="114" y="80" width="28" height="2" fill="#ff5cab"/>
  <rect x="142" y="78" width="28" height="2" fill="#ff5cab"/>
  <rect x="170" y="76" width="28" height="2" fill="#ff5cab"/>

  <!-- Title chip -->
  <rect x="200" y="20" width="34" height="12" fill="#ffd55a"/>
</svg>
