<svg xmlns="http://www.w3.org/2000/svg" viewBox="0 0 256 144" width="256" height="144">
  <rect width="256" height="144" fill="#0b1b2a"/>
  <!-- CRT monitor frame -->
  <rect x="36" y="20" width="184" height="108" rx="0" ry="0" fill="#1a2f45" stroke="#2a4d6f"/>
  <rect x="44" y="28" width="168" height="84" fill="#11273a" stroke="#2a4d6f"/>
  <rect x="100" y="116" width="56" height="8" fill="#223b57"/>
  <!-- Axes -->
  <rect x="58" y="36" width="2" height="70" fill="#b4d7ff"/>
  <rect x="58" y="104" width="140" height="2" fill="#b4d7ff"/>
  <!-- Observations (dots) -->
  <rect x="76" y="92" width="2" height="2" fill="#a9e6ff"/>
  <rect x="94" y="84" width="2" height="2" fill="#a9e6ff"/>
  <rect x="112" y="78" width="2" height="2" fill="#a9e6ff"/>
  <rect x="130" y="70" width="2" height="2" fill="#a9e6ff"/>
  <rect x="148" y="64" width="2" height="2" fill="#a9e6ff"/>
  <rect x="166" y="58" width="2" height="2" fill="#a9e6ff"/>
  <!-- High-skill model line (cyan) -->
  <rect x="60" y="96" width="20" height="2" fill="#4de0ff"/>
  <rect x="80" y="88" width="20" height="2" fill="#4de0ff"/>
  <rect x="100" y="82" width="20" height="2" fill="#4de0ff"/>
  <rect x="120" y="74" width="20" height="2" fill="#4de0ff"/>
  <rect x="140" y="68" width="20" height="2" fill="#4de0ff"/>
  <rect x="160" y="62" width="20" height="2" fill="#4de0ff"/>
  <!-- Weaker model line (magenta) deviating -->
  <rect x="60" y="96" width="20" height="2" fill="#ff5cab"/>
  <rect x="80" y="90" width="20" height="2" fill="#ff5cab"/>
  <rect x="100" y="86" width="20" height="2" fill="#ff5cab"/>
  <rect x="120" y="84" width="20" height="2" fill="#ff5cab"/>
  <rect x="140" y="86" width="20" height="2" fill="#ff5cab"/>
  <rect x="160" y="92" width="20" height="2" fill="#ff5cab"/>
  <!-- Indicator badge -->
  <rect x="188" y="36" width="16" height="10" fill="#ffd55a"/>
</svg>
