<svg id="Layer_1" data-name="Layer 1" xmlns="http://www.w3.org/2000/svg" xmlns:xlink="http://www.w3.org/1999/xlink" viewBox="0 0 233 278.5"><defs><style>.cls-1,.cls-2{fill:#fff;}.cls-1,.cls-6{stroke:#109d49;}.cls-1,.cls-5,.cls-6{stroke-miterlimit:10;stroke-width:0.25px;}.cls-3,.cls-5{fill:#074ba9;}.cls-4,.cls-6{fill:#109d49;}.cls-5{stroke:#074ba9;}.cls-7{mask:url(#mask);}.cls-8{mask:url(#mask-2);}</style><mask id="mask" x="65.88" y="232.08" width="7.29" height="7.29" maskUnits="userSpaceOnUse"><rect class="cls-1" x="66" y="232.2" width="7.04" height="7.04"/><rect class="cls-2" x="67.38" y="232.94" width="3.56" height="4.31"/></mask><mask id="mask-2" x="65.88" y="232.08" width="7.29" height="26.21" maskUnits="userSpaceOnUse"><rect class="cls-1" x="66" y="232.2" width="7.04" height="7.04"/><rect class="cls-2" x="67.38" y="232.94" width="3.56" height="4.31"/></mask></defs><title>ppl-logo-xl</title><path class="cls-3" d="M132.13,117.22a36.8,36.8,0,0,0,15.6-8.74q16-14.53,16-38.72a63.33,63.33,0,0,0-4.66-24.59A45.36,45.36,0,0,0,145.77,27a42.33,42.33,0,0,0-18.08-8.88H91.2V119.59h16Q123.4,119.59,132.13,117.22Z"/><path class="cls-3" d="M168.94,18.08a56.69,56.69,0,0,1,11.14,6.75q23.19,17.66,23.2,47.05,0,29.91-23.53,43.79-12.25,7.18-29.73,8.66-5.57.48-26.79.49h-32v58.65q0,16.65,1.88,24.75a27.6,27.6,0,0,0,7,13.31,28.66,28.66,0,0,0,3.94,3.41H222V18.08Z"/><path class="cls-4" d="M50,29.08a26.85,26.85,0,0,0-10.79-9.72,30.16,30.16,0,0,0-3.09-1.28h-21V224.94H42.66a28.66,28.66,0,0,0,3.94-3.41,26.37,26.37,0,0,0,7-13.23q1.8-8,1.8-24.83V63.06A144.39,144.39,0,0,0,54.2,41.42,33.53,33.53,0,0,0,50,29.08Z"/><path class="cls-5" d="M20,256.2v10.09H16.81V245.84c0-1.43,0-2.87,0-4.3h3.16a28,28,0,0,1,.11,3c1-1.79,3-3.43,6.62-3.43,4.64,0,8,3.79,8,8.78,0,5.62-3.89,9.37-8.56,9.37C22.56,259.22,21,257.67,20,256.2ZM31.34,250c0-3.06-1.76-6.2-5.64-6.2S20,246.61,20,250.22s1.89,6.26,5.69,6.26S31.34,253.42,31.34,250Z"/><path class="cls-5" d="M45.63,233.19v11.44c.61-1.26,2.2-3.56,6.36-3.56,3.94,0,6.53,2.41,6.53,7.29v10.39H55.27v-9.91c0-2.89-1.05-5.06-4.26-5.06-3.63,0-5.37,2.91-5.37,6.51v8.46H42.41V233.19Z"/><path class="cls-5" d="M67.57,233.19h3.24v3.88H67.57Zm0,8.35h3.24v17.21H67.57Z"/><path class="cls-5" d="M79.88,258.75V233.19h3.24v25.56Z"/><path class="cls-6" d="M95.26,256.2v10.09H92V245.84c0-1.43,0-2.87,0-4.3h3.15a28,28,0,0,1,.11,3c1-1.79,3-3.43,6.62-3.43,4.64,0,8,3.79,8,8.78,0,5.62-3.89,9.37-8.56,9.37C97.78,259.22,96.2,257.67,95.26,256.2ZM106.57,250c0-3.06-1.77-6.2-5.64-6.2s-5.76,2.83-5.76,6.44,1.89,6.26,5.69,6.26S106.57,253.42,106.57,250Z"/><path class="cls-6" d="M119.5,250.9a5.69,5.69,0,0,0,5.9,5.72,5.24,5.24,0,0,0,5.09-2.77h3.24c-.93,2.56-3.36,5.37-8.51,5.37-6.16,0-9-4.5-9-9,0-5.2,3.45-9.13,8.88-9.13,6.53,0,8.84,4.78,8.84,9,0,.29,0,.51,0,.85Zm11.11-2.3c-.15-2-1.24-5-5.49-5a5.18,5.18,0,0,0-5.55,5Z"/><path class="cls-6" d="M158.9,250.14c0,4.78-3.09,9.08-9.27,9.08a9.08,9.08,0,1,1,9.27-9.08Zm-15,0c0,3.27,2.09,6.41,5.87,6.41,3.94,0,5.82-2.94,5.82-6.38s-2.08-6.47-5.9-6.47S143.87,246.71,143.87,250.16Z"/><path class="cls-6" d="M169.77,256.2v10.09h-3.23V245.84c0-1.43,0-2.87,0-4.3h3.15a28,28,0,0,1,.11,3c1-1.79,3-3.43,6.62-3.43,4.64,0,8,3.79,8,8.78,0,5.62-3.89,9.37-8.56,9.37C172.29,259.22,170.7,257.67,169.77,256.2Zm11.3-6.22c0-3.06-1.76-6.2-5.63-6.2s-5.76,2.83-5.76,6.44,1.89,6.26,5.69,6.26S181.07,253.42,181.07,250Z"/><path class="cls-6" d="M192.14,258.75V233.19h3.24v25.56Z"/><path class="cls-6" d="M206.25,250.9a5.69,5.69,0,0,0,5.9,5.72,5.24,5.24,0,0,0,5.09-2.77h3.24c-.93,2.56-3.36,5.37-8.51,5.37-6.16,0-9-4.5-9-9,0-5.2,3.46-9.13,8.89-9.13,6.53,0,8.84,4.78,8.84,9,0,.29,0,.51,0,.85Zm11.1-2.3c-.14-2-1.23-5-5.48-5a5.18,5.18,0,0,0-5.55,5Z"/><g class="cls-7"><g class="cls-8"><path class="cls-6" d="M67.49,233.23h3.34v3.84H67.49Zm0,7.63h3.34v17.3H67.49Z"/></g></g></svg>